<svg width="65" height="81" viewBox="0 0 65 81" fill="none" xmlns="http://www.w3.org/2000/svg">
<path d="M8.25008 0.0830078C6.10625 0.0830078 4.05022 0.934642 2.5343 2.45056C1.01838 3.96648 0.166748 6.02251 0.166748 8.16634V72.833C0.166748 74.9768 1.01838 77.0329 2.5343 78.5488C4.05022 80.0647 6.10625 80.9163 8.25008 80.9163H56.7501C58.8939 80.9163 60.9499 80.0647 62.4659 78.5488C63.9818 77.0329 64.8334 74.9768 64.8334 72.833V31.7212C64.833 29.5775 63.981 27.5218 62.465 26.0063L38.9102 2.45142C37.3946 0.9354 35.3389 0.0834656 33.1953 0.0830078H8.25008ZM6.22925 8.16634C6.22925 7.63038 6.44216 7.11638 6.82114 6.7374C7.20012 6.35842 7.71412 6.14551 8.25008 6.14551H32.5001V24.333C32.5001 26.4768 33.3517 28.5329 34.8676 30.0488C36.3836 31.5647 38.4396 32.4163 40.5834 32.4163H58.7709V72.833C58.7709 73.369 58.558 73.883 58.179 74.2619C57.8001 74.6409 57.286 74.8538 56.7501 74.8538H8.25008C7.71412 74.8538 7.20012 74.6409 6.82114 74.2619C6.44216 73.883 6.22925 73.369 6.22925 72.833V8.16634ZM54.2442 26.3538H40.5834C40.0475 26.3538 39.5335 26.1409 39.1545 25.762C38.7755 25.383 38.5626 24.869 38.5626 24.333V10.6722L54.2442 26.3538Z" fill="#B6252A"/>
</svg>
