<svg width="18" height="19" viewBox="0 0 18 19" fill="none" xmlns="http://www.w3.org/2000/svg">
<path d="M1 18.5C0.716667 18.5 0.479333 18.404 0.288 18.212C0.0966668 18.02 0.000666667 17.7827 0 17.5V15.075C0 14.8083 0.0500001 14.554 0.15 14.312C0.25 14.07 0.391667 13.8577 0.575 13.675L13.2 1.075C13.4 0.891667 13.621 0.75 13.863 0.65C14.105 0.55 14.359 0.5 14.625 0.5C14.891 0.5 15.1493 0.55 15.4 0.65C15.6507 0.75 15.8673 0.9 16.05 1.1L17.425 2.5C17.625 2.68333 17.7707 2.9 17.862 3.15C17.9533 3.4 17.9993 3.65 18 3.9C18 4.16667 17.954 4.421 17.862 4.663C17.77 4.905 17.6243 5.12567 17.425 5.325L4.825 17.925C4.64167 18.1083 4.429 18.25 4.187 18.35C3.945 18.45 3.691 18.5 3.425 18.5H1ZM14.6 5.3L16 3.9L14.6 2.5L13.2 3.9L14.6 5.3Z" fill="white"/>
</svg>
