<svg width="21" height="20" viewBox="0 0 21 20" fill="none" xmlns="http://www.w3.org/2000/svg">
<path d="M17 0C17.2652 0 17.5196 0.105357 17.7071 0.292893C17.8946 0.48043 18 0.734784 18 1V4.757L16 6.757V2H2V18H16V15.242L18 13.242V19C18 19.2652 17.8946 19.5196 17.7071 19.7071C17.5196 19.8946 17.2652 20 17 20H1C0.734784 20 0.48043 19.8946 0.292893 19.7071C0.105357 19.5196 0 19.2652 0 19V1C0 0.734784 0.105357 0.48043 0.292893 0.292893C0.48043 0.105357 0.734784 0 1 0H17ZM18.778 6.808L20.192 8.222L12.414 16L10.998 15.998L11 14.586L18.778 6.808ZM10 10V12H5V10H10ZM13 6V8H5V6H13Z" fill="white"/>
</svg>
