<svg width="18" height="22" viewBox="0 0 18 22" fill="none" xmlns="http://www.w3.org/2000/svg">
<path fill-rule="evenodd" clip-rule="evenodd" d="M1.99999 7C1.99999 5.14348 2.73749 3.36301 4.05024 2.05025C5.363 0.737498 7.14348 0 8.99999 0C10.8565 0 12.637 0.737498 13.9497 2.05025C15.2625 3.36301 16 5.14348 16 7V10.764L17.822 14.408C17.9059 14.5757 17.9455 14.7621 17.937 14.9494C17.9286 15.1368 17.8724 15.3188 17.7738 15.4783C17.6753 15.6379 17.5375 15.7695 17.3737 15.8608C17.2099 15.9521 17.0255 16 16.838 16H12.874C12.6516 16.8582 12.1504 17.6183 11.4493 18.1609C10.7481 18.7035 9.88659 18.9979 8.99999 18.9979C8.11339 18.9979 7.25189 18.7035 6.55073 18.1609C5.84956 17.6183 5.34843 16.8582 5.12599 16H1.16199C0.974469 16 0.790053 15.9521 0.626258 15.8608C0.462464 15.7695 0.324729 15.6379 0.226136 15.4783C0.127544 15.3188 0.0713663 15.1368 0.0629399 14.9494C0.0545135 14.7621 0.0941178 14.5757 0.177991 14.408L1.99999 10.764V7ZM7.26799 16C7.44353 16.304 7.69601 16.5565 8.00004 16.732C8.30406 16.9075 8.64894 16.9999 8.99999 16.9999C9.35105 16.9999 9.69592 16.9075 9.99995 16.732C10.304 16.5565 10.5564 16.304 10.732 16H7.26799ZM8.99999 2C7.67391 2 6.40214 2.52678 5.46446 3.46447C4.52678 4.40215 3.99999 5.67392 3.99999 7V10.764C3.99997 11.0743 3.92773 11.3804 3.78899 11.658L2.61899 14H15.382L14.212 11.658C14.0729 11.3805 14.0003 11.0744 14 10.764V7C14 5.67392 13.4732 4.40215 12.5355 3.46447C11.5978 2.52678 10.3261 2 8.99999 2Z" fill="white"/>
</svg>
