<svg width="18" height="20" viewBox="0 0 18 20" fill="none" xmlns="http://www.w3.org/2000/svg">
<path fill-rule="evenodd" clip-rule="evenodd" d="M1.93816 7.59302C1.93816 5.7365 2.67566 3.95602 3.98842 2.64327C5.30117 1.33052 7.08165 0.593018 8.93816 0.593018C10.7947 0.593018 12.5752 1.33052 13.8879 2.64327C15.2007 3.95602 15.9382 5.7365 15.9382 7.59302V11.357L17.7602 15.001C17.844 15.1687 17.8836 15.3551 17.8752 15.5424C17.8668 15.7298 17.8106 15.9118 17.712 16.0714C17.6134 16.2309 17.4757 16.3625 17.3119 16.4538C17.1481 16.5451 16.9637 16.593 16.7762 16.593H12.8122C12.5897 17.4513 12.0886 18.2113 11.3874 18.7539C10.6863 19.2966 9.82476 19.591 8.93816 19.591C8.05157 19.591 7.19007 19.2966 6.4889 18.7539C5.78773 18.2113 5.2866 17.4513 5.06416 16.593H1.10016C0.912641 16.593 0.728224 16.5451 0.56443 16.4538C0.400635 16.3625 0.262901 16.2309 0.164308 16.0714C0.0657151 15.9118 0.00953771 15.7298 0.00111129 15.5424C-0.00731514 15.3551 0.0322892 15.1687 0.116163 15.001L1.93816 11.357V7.59302ZM7.20616 16.593C7.38171 16.897 7.63418 17.1495 7.93821 17.325C8.24223 17.5005 8.58711 17.5929 8.93816 17.5929C9.28922 17.5929 9.63409 17.5005 9.93812 17.325C10.2421 17.1495 10.4946 16.897 10.6702 16.593H7.20616ZM8.93816 2.59302C7.61208 2.59302 6.34031 3.1198 5.40263 4.05748C4.46495 4.99517 3.93816 6.26694 3.93816 7.59302V11.357C3.93814 11.6674 3.8659 11.9734 3.72716 12.251L2.55716 14.593H15.3202L14.1502 12.251C14.0111 11.9735 13.9385 11.6674 13.9382 11.357V7.59302C13.9382 6.26694 13.4114 4.99517 12.4737 4.05748C11.536 3.1198 10.2642 2.59302 8.93816 2.59302Z" fill="#B6252A"/>
</svg>
