<svg width="24" height="24" viewBox="0 0 24 24" fill="none" xmlns="http://www.w3.org/2000/svg">
<path d="M9.27083 17.6667C6.92431 17.6667 4.93858 16.8538 3.31367 15.228C1.68875 13.6022 0.875862 11.6165 0.875001 9.27083C0.87414 6.92517 1.68703 4.93944 3.31367 3.31367C4.94031 1.68789 6.92603 0.875 9.27083 0.875C11.6156 0.875 13.6018 1.68789 15.2293 3.31367C16.8568 4.93944 17.6693 6.92517 17.6667 9.27083C17.6667 10.2181 17.516 11.1115 17.2146 11.951C16.9132 12.7906 16.5042 13.5333 15.9875 14.1792L23.2208 21.4125C23.4576 21.6493 23.576 21.9507 23.576 22.3167C23.576 22.6826 23.4576 22.984 23.2208 23.2208C22.984 23.4576 22.6826 23.576 22.3167 23.576C21.9507 23.576 21.6493 23.4576 21.4125 23.2208L14.1792 15.9875C13.5333 16.5042 12.7906 16.9132 11.951 17.2146C11.1115 17.516 10.2181 17.6667 9.27083 17.6667ZM9.27083 15.0833C10.8854 15.0833 12.258 14.5184 13.3887 13.3887C14.5193 12.2589 15.0842 10.8863 15.0833 9.27083C15.0825 7.65539 14.5176 6.28321 13.3887 5.15429C12.2598 4.02538 10.8871 3.46006 9.27083 3.45833C7.65453 3.45661 6.28235 4.02193 5.15429 5.15429C4.02624 6.28665 3.46092 7.65883 3.45833 9.27083C3.45575 10.8828 4.02107 12.2554 5.15429 13.3887C6.28751 14.5219 7.6597 15.0868 9.27083 15.0833Z" fill="#727272"/>
</svg>
